<svg width="17" height="17" viewBox="0 0 17 17" fill="none" xmlns="http://www.w3.org/2000/svg">
<g id="Social Icons">
<g clip-path="url(#clip0_128_21700)">
<rect x="0.257324" y="0.639648" width="16" height="16" rx="4" fill="#DEDAFC"/>
<path id="Vector" d="M16.2573 8.52487C16.2573 10.6444 15.9021 12.3637 15.4638 12.3637C15.0255 12.3637 14.6704 10.6449 14.6704 8.52487C14.6704 6.40486 15.0256 4.68604 15.4638 4.68604C15.902 4.68604 16.2573 6.40471 16.2573 8.52487Z" fill="#705FFF"/>
<path id="Vector_2" d="M14.2325 8.52491C14.2325 10.8911 13.2224 12.8101 11.9763 12.8101C10.7301 12.8101 9.71997 10.8911 9.71997 8.52491C9.71997 6.1587 10.73 4.23975 11.9761 4.23975C13.2222 4.23975 14.2324 6.15809 14.2324 8.52491" fill="#705FFF"/>
<path id="Vector_3" d="M9.28228 8.52495C9.28228 11.0388 7.26195 13.0766 4.76988 13.0766C2.27781 13.0766 0.257324 11.0383 0.257324 8.52495C0.257324 6.01159 2.27766 3.97314 4.76988 3.97314C7.26211 3.97314 9.28228 6.01113 9.28228 8.52495Z" fill="#705FFF"/>
</g>
</g>
<defs>
<clipPath id="clip0_128_21700">
<rect x="0.257324" y="0.639648" width="16" height="16" rx="4" fill="white"/>
</clipPath>
</defs>
</svg>
