<svg width="17" height="17" viewBox="0 0 17 17" fill="none" xmlns="http://www.w3.org/2000/svg">
<g id="vuesax/linear/global">
<g id="global">
<path id="Vector" d="M8.25706 15.3065C11.939 15.3065 14.9237 12.3217 14.9237 8.63981C14.9237 4.95791 11.939 1.97314 8.25706 1.97314C4.57516 1.97314 1.59039 4.95791 1.59039 8.63981C1.59039 12.3217 4.57516 15.3065 8.25706 15.3065Z" stroke="#8F81F3" stroke-width="1.3" stroke-linecap="round" stroke-linejoin="round"/>
<path id="Vector_2" d="M5.59044 2.63965H6.2571C4.9571 6.53298 4.9571 10.7463 6.2571 14.6396H5.59044" stroke="#8F81F3" stroke-width="1.3" stroke-linecap="round" stroke-linejoin="round"/>
<path id="Vector_3" d="M10.2571 2.63965C11.5571 6.53298 11.5571 10.7463 10.2571 14.6396" stroke="#8F81F3" stroke-width="1.3" stroke-linecap="round" stroke-linejoin="round"/>
<path id="Vector_4" d="M2.25708 11.3063V10.6396C6.15041 11.9396 10.3637 11.9396 14.2571 10.6396V11.3063" stroke="#8F81F3" stroke-width="1.3" stroke-linecap="round" stroke-linejoin="round"/>
<path id="Vector_5" d="M2.25708 6.63955C6.15041 5.33955 10.3637 5.33955 14.2571 6.63955" stroke="#8F81F3" stroke-width="1.3" stroke-linecap="round" stroke-linejoin="round"/>
</g>
</g>
</svg>
