<svg width="17" height="17" viewBox="0 0 17 17" fill="none" xmlns="http://www.w3.org/2000/svg">
<g id="icon/instagram">
<rect x="0.25708" y="0.639648" width="16" height="16" rx="6" fill="#DEDAFC"/>
<path id="vector" fill-rule="evenodd" clip-rule="evenodd" d="M8.25708 2.63965C6.62748 2.63965 6.42348 2.64645 5.78348 2.67565C5.14468 2.70485 4.70828 2.80645 4.32668 2.95485C3.92668 3.10525 3.56388 3.34125 3.26388 3.64685C2.95877 3.9465 2.72262 4.30905 2.57188 4.70925C2.42428 5.09085 2.32228 5.52765 2.29308 6.16645C2.26428 6.80605 2.25708 7.00965 2.25708 8.63965C2.25708 10.2696 2.26388 10.4732 2.29308 11.1132C2.32228 11.752 2.42388 12.1884 2.57228 12.57C2.72268 12.97 2.95868 13.3328 3.26428 13.6328C3.56394 13.938 3.92648 14.1741 4.32668 14.3248C4.70828 14.4728 5.14468 14.5744 5.78348 14.6036C6.42348 14.6328 6.62748 14.6396 8.25708 14.6396C9.88668 14.6396 10.0907 14.6328 10.7307 14.6036C11.3695 14.5744 11.8059 14.4728 12.1875 14.3244C12.5875 14.174 12.9503 13.938 13.2503 13.6324C13.5554 13.3328 13.7915 12.9703 13.9423 12.57C14.0903 12.1884 14.1919 11.752 14.2211 11.1132C14.2503 10.4732 14.2571 10.2692 14.2571 8.63965C14.2571 7.01005 14.2503 6.80605 14.2211 6.16605C14.1919 5.52725 14.0903 5.09085 13.9419 4.70925C13.7912 4.30887 13.5551 3.94618 13.2499 3.64645C12.9502 3.34134 12.5877 3.10519 12.1875 2.95445C11.8059 2.80685 11.3691 2.70485 10.7303 2.67565C10.0907 2.64685 9.88708 2.63965 8.25708 2.63965ZM8.25708 3.72085C9.85908 3.72085 10.0491 3.72685 10.6819 3.75565C11.2667 3.78245 11.5843 3.87965 11.7959 3.96245C12.0759 4.07085 12.2759 4.20125 12.4859 4.41085C12.6959 4.62085 12.8259 4.82085 12.9343 5.10085C13.0167 5.31245 13.1143 5.63005 13.1411 6.21485C13.1699 6.84765 13.1759 7.03765 13.1759 8.63965C13.1759 10.2416 13.1699 10.4316 13.1411 11.0644C13.1143 11.6492 13.0171 11.9668 12.9343 12.1784C12.8383 12.4391 12.685 12.6748 12.4859 12.8684C12.2923 13.0676 12.0565 13.2209 11.7959 13.3168C11.5843 13.3992 11.2667 13.4968 10.6819 13.5236C10.0491 13.5524 9.85948 13.5584 8.25708 13.5584C6.65468 13.5584 6.46508 13.5524 5.83228 13.5236C5.24748 13.4968 4.92988 13.3996 4.71828 13.3168C4.45766 13.2208 4.22188 13.0676 4.02828 12.8684C3.82915 12.6748 3.67593 12.4391 3.57988 12.1784C3.49748 11.9668 3.39988 11.6492 3.37308 11.0644C3.34428 10.4316 3.33828 10.2416 3.33828 8.63965C3.33828 7.03765 3.34428 6.84765 3.37308 6.21485C3.39988 5.63005 3.49708 5.31245 3.57988 5.10085C3.68828 4.82085 3.81868 4.62085 4.02828 4.41085C4.22186 4.21167 4.45764 4.05844 4.71828 3.96245C4.92988 3.88005 5.24748 3.78245 5.83228 3.75565C6.46508 3.72685 6.65508 3.72085 8.25708 3.72085Z" fill="#705FFF"/>
<path id="vector_2" fill-rule="evenodd" clip-rule="evenodd" d="M8.25709 10.6415C7.99419 10.6415 7.73386 10.5897 7.49096 10.4891C7.24807 10.3885 7.02737 10.241 6.84147 10.0551C6.65556 9.86923 6.5081 9.64853 6.40749 9.40564C6.30688 9.16275 6.2551 8.90241 6.2551 8.63951C6.2551 8.3766 6.30688 8.11627 6.40749 7.87338C6.5081 7.63048 6.65556 7.40978 6.84147 7.22388C7.02737 7.03798 7.24807 6.89051 7.49096 6.7899C7.73386 6.68929 7.99419 6.63751 8.25709 6.63751C8.78806 6.63751 9.29727 6.84843 9.67272 7.22388C10.0482 7.59933 10.2591 8.10854 10.2591 8.63951C10.2591 9.17047 10.0482 9.67969 9.67272 10.0551C9.29727 10.4306 8.78806 10.6415 8.25709 10.6415ZM8.25709 5.55551C7.43917 5.55551 6.65474 5.88043 6.07638 6.45879C5.49802 7.03715 5.1731 7.82158 5.1731 8.63951C5.1731 9.45744 5.49802 10.2419 6.07638 10.8202C6.65474 11.3986 7.43917 11.7235 8.25709 11.7235C9.07502 11.7235 9.85945 11.3986 10.4378 10.8202C11.0162 10.2419 11.3411 9.45744 11.3411 8.63951C11.3411 7.82158 11.0162 7.03715 10.4378 6.45879C9.85945 5.88043 9.07502 5.55551 8.25709 5.55551ZM12.2383 5.49951C12.2383 5.69285 12.1615 5.87827 12.0248 6.01499C11.8881 6.1517 11.7026 6.22851 11.5093 6.22851C11.316 6.22851 11.1305 6.1517 10.9938 6.01499C10.8571 5.87827 10.7803 5.69285 10.7803 5.49951C10.7803 5.30617 10.8571 5.12074 10.9938 4.98403C11.1305 4.84731 11.316 4.77051 11.5093 4.77051C11.7026 4.77051 11.8881 4.84731 12.0248 4.98403C12.1615 5.12074 12.2383 5.30617 12.2383 5.49951Z" fill="#705FFF"/>
</g>
</svg>
