<svg width="21" height="15" viewBox="0 0 21 15" fill="none" xmlns="http://www.w3.org/2000/svg">
<g id="Group 1160443484">
<path id="vector" fill-rule="evenodd" clip-rule="evenodd" d="M18.0391 1.06272C18.8981 1.29349 19.5776 1.97298 19.8084 2.83195C20.2314 4.39606 20.2443 7.63965 20.2443 7.63965C20.2443 7.63965 20.2443 10.8961 19.8212 12.4473C19.5904 13.3063 18.9109 13.9858 18.052 14.2166C16.5007 14.6396 10.2571 14.6396 10.2571 14.6396C10.2571 14.6396 4.01349 14.6396 2.46221 14.2166C1.60323 13.9858 0.923748 13.3063 0.692979 12.4473C0.269901 10.8832 0.269901 7.63965 0.269901 7.63965C0.269901 7.63965 0.269901 4.39606 0.680157 2.84478C0.910927 1.9858 1.59041 1.30632 2.44939 1.07555C4.00067 0.652466 10.2443 0.639648 10.2443 0.639648C10.2443 0.639648 16.4879 0.639648 18.0391 1.06272ZM13.4366 7.63965L8.25708 10.6396V4.63965L13.4366 7.63965Z" fill="#DEDAFC"/>
<path id="vector_2" d="M17.9076 1.54511L17.9094 1.5456C18.5961 1.73008 19.141 2.275 19.3255 2.96168L19.3257 2.96251C19.522 3.68828 19.6296 4.84227 19.6857 5.85016C19.7134 6.34675 19.7281 6.79558 19.7358 7.12028C19.7396 7.28252 19.7418 7.4135 19.7429 7.50363L19.744 7.60692L19.7442 7.6333L19.7443 7.63977L19.7443 7.63998L19.7443 7.64128L19.7443 7.6415L19.7442 7.64799L19.7442 7.67446L19.7435 7.77811C19.7426 7.86855 19.741 7.99995 19.7377 8.16267C19.7312 8.48833 19.7182 8.93828 19.6921 9.43556C19.6391 10.4455 19.5346 11.598 19.3388 12.3158L19.3383 12.3176C19.1538 13.0043 18.6089 13.5492 17.9222 13.7337L17.9204 13.7342C17.5854 13.8255 16.9501 13.9027 16.1426 13.9625C15.3495 14.0213 14.4318 14.0606 13.5577 14.087C12.6845 14.1133 11.859 14.1265 11.2515 14.1331C10.9478 14.1364 10.6989 14.138 10.526 14.1388L10.3265 14.1395L10.2745 14.1396L10.2613 14.1396L10.2581 14.1396H10.2573H10.2571L10.2571 14.6396L10.257 14.1396H10.2569H10.2561L10.2528 14.1396L10.2397 14.1396L10.1877 14.1395L9.98815 14.1388C9.81527 14.138 9.56635 14.1364 9.2627 14.1331C8.65521 14.1265 7.82967 14.1133 6.95644 14.087C6.08239 14.0606 5.16465 14.0213 4.37153 13.9625C3.56405 13.9027 2.92873 13.8255 2.59377 13.7342L2.59194 13.7337C1.90525 13.5492 1.36034 13.0043 1.17586 12.3176L1.17563 12.3168C0.97955 11.5919 0.875061 10.4386 0.822097 9.43072C0.796008 8.93423 0.782943 8.48549 0.776411 8.16084C0.773147 7.99862 0.771519 7.86767 0.770707 7.77757L0.77 7.67431L0.769913 7.64795L0.769903 7.64149L0.769901 7.63998L0.769901 7.63967V7.63962L0.769901 7.6393L0.769903 7.63779L0.769913 7.6313L0.769997 7.60491L0.770683 7.50161C0.771471 7.41148 0.77305 7.28053 0.776216 7.11836C0.782553 6.79379 0.795226 6.34529 0.820533 5.84943C0.871884 4.84327 0.973191 3.69305 1.16328 2.97358C1.34801 2.28733 1.89274 1.74283 2.57912 1.55843L2.57912 1.55843L2.58095 1.55793C2.91632 1.46646 3.552 1.38853 4.35945 1.32753C5.15265 1.26761 6.07046 1.22663 6.94453 1.19869C7.81779 1.17077 8.64336 1.15601 9.25087 1.14822C9.55452 1.14433 9.80345 1.14218 9.97634 1.14101L10.1759 1.13989L10.2279 1.1397L10.241 1.13966L10.2443 1.13965L10.2443 1.13965H10.2445L10.2453 1.13965L10.2485 1.13965L10.2617 1.13966L10.3136 1.13975L10.5132 1.14047C10.6861 1.14129 10.935 1.14294 11.2386 1.14623C11.8461 1.15282 12.6717 1.16599 13.5449 1.19231C14.4189 1.21865 15.3367 1.25804 16.1298 1.31677C16.9373 1.37656 17.5726 1.45375 17.9076 1.54511Z" stroke="#705FFF"/>
<path id="Vector 9" d="M8.28116 10.6677V4.67578L13.4966 7.64086L8.28116 10.6677Z" fill="#705FFF"/>
</g>
</svg>
