<svg width="17" height="17" viewBox="0 0 17 17" fill="none" xmlns="http://www.w3.org/2000/svg">
<g id="Telegram" clip-path="url(#clip0_128_21527)">
<path id="Vector" fill-rule="evenodd" clip-rule="evenodd" d="M2.11511 8.16853C6.24944 6.36727 9.0063 5.17977 10.3857 4.60603C14.3242 2.96789 15.1426 2.68332 15.676 2.67393C15.7933 2.67186 16.0556 2.70094 16.2255 2.83881C16.369 2.95523 16.4085 3.1125 16.4274 3.22288C16.4463 3.33325 16.4698 3.5847 16.4511 3.78117C16.2376 6.02367 15.3142 11.4656 14.8443 13.9772C14.6455 15.04 14.2541 15.3964 13.8751 15.4312C13.0516 15.507 12.4262 14.887 11.6285 14.3641C10.3803 13.5459 9.67515 13.0365 8.46356 12.2381C7.06336 11.3154 7.97106 10.8083 8.76903 9.97946C8.97786 9.76256 12.6065 6.462 12.6768 6.16259C12.6856 6.12514 12.6937 5.98556 12.6108 5.91186C12.5279 5.83815 12.4055 5.86335 12.3171 5.8834C12.192 5.91181 10.198 7.22978 6.33512 9.83729C5.76913 10.2259 5.25647 10.4153 4.79715 10.4054C4.29078 10.3944 3.31673 10.1191 2.59263 9.8837C1.70448 9.595 0.9986 9.44236 1.06007 8.95206C1.09208 8.69668 1.44376 8.4355 2.11511 8.16853Z" fill="#705FFF"/>
</g>
<defs>
<clipPath id="clip0_128_21527">
<rect width="16" height="16" fill="white" transform="translate(0.75708 0.639648)"/>
</clipPath>
</defs>
</svg>
